#!OML:ASF H:\Punching\Project 1\Capture day 1\Session 1\female.ASF
:FULLY-SPECIFIED
:DEGREES
1319
root -4.59526 15.6972 12.6244 7.23946 5.59226 3.33538
lowerback -6.27367 -2.20197 -1.19739
upperback -6.39391 -2.86577 0.827392
thorax -2.98999 -1.36879 1.41922
lowerneck -15.3901 4.22772 8.61132
upperneck 35.7626 7.0335 -8.89041
head 15.9283 2.96184 -4.09106
rclavicle 1.36167e-014 7.15625e-015
rhumerus -42.0819 -17.343 -62.4171
rradius 23.0465
rwrist 17.3366
rhand -9.24383 -7.65754
rfingers 7.12502
rthumb 16.7117 -36.9582
lclavicle 1.36167e-014 7.15625e-015
lhumerus -35.3446 -0.238117 88.9035
lradius 40.9154
lwrist -16.4595
lhand -6.81706 9.83494
lfingers 7.12502
lthumb 19.0468 38.9223
rfemur -27.5041 17.4379 7.5892
rtibia 29.8
rfoot -16.1187 12.4016
rtoes -9.57417
lfemur -0.396519 -8.12379 -28.427
ltibia 8.98612
lfoot -12.7805 8.88785
ltoes 8.50823
1320
root -4.61956 15.7001 12.6845 7.28457 5.87308 3.13249
lowerback -6.35495 -2.19502 -0.848938
upperback -6.45248 -2.86593 0.918027
thorax -3.01776 -1.37943 1.31653
lowerneck -15.4076 4.25432 8.54886
upperneck 35.8566 7.16229 -9.0298
head 16.0022 2.99042 -4.12261
rclavicle -2.44505e-014 9.54166e-015
rhumerus -41.9597 -17.374 -62.3123
rradius 23.0529
rwrist 17.406
rhand -9.24263 -7.72318
rfingers 7.12502
rthumb 16.7129 -37.0238
lclavicle -2.44505e-014 9.54166e-015
lhumerus -35.77 0.41072 88.7199
lradius 40.2727
lwrist -16.9984
lhand -6.76881 9.6623
lfingers 7.12502
lthumb 19.0932 38.7451
rfemur -27.2667 17.4197 7.9967
rtibia 29.84
rfoot -16.0715 12.3814
rtoes -8.56346
lfemur -0.336644 -8.52904 -28.1054
ltibia 9.2448
lfoot -13.0291 9.11139
ltoes 8.35186
1321
root -4.64397 15.703 12.7434 7.36028 6.16181 2.9214
lowerback -6.47004 -2.19541 -0.495385
upperback -6.51587 -2.87625 1.00976
thorax -3.03209 -1.39558 1.2105
lowerneck -15.4185 4.28805 8.49999
upperneck 35.9368 7.29294 -9.15844
head 16.0684 3.02307 -4.15092
rclavicle 6.85807e-015 -1.59028e-014
rhumerus -41.8062 -17.3942 -62.2313
rradius 23.0656
rwrist 17.4442
rhand -9.22923 -7.76196
rfingers 7.12502
rthumb 16.7258 -37.0614
lclavicle 6.85807e-015 -1.59028e-014
lhumerus -36.1903 1.12687 88.4645
lradius 39.5466
lwrist -17.5932
lhand -6.74114 9.48996
lfingers 7.12502
lthumb 19.1198 38.5702
rfemur -27.0446 17.3789 8.40918
rtibia 29.8298
rfoot -16.0054 12.3844
rtoes -7.53213
lfemur -0.402246 -8.9517 -27.7638
ltibia 9.66242
lfoot -13.3406 9.34147
ltoes 8.20826
1322
root -4.66926 15.7062 12.8011 7.46371 6.46335 2.70927
lowerback -6.61912 -2.20449 -0.157075
upperback -6.58036 -2.89816 1.10254
thorax -3.02813 -1.41714 1.11223
lowerneck -15.4281 4.32603 8.45401
upperneck 36.006 7.41938 -9.26376
head 16.1275 3.05732 -4.16956
rclavicle 2.28602e-014 1.59028e-015
rhumerus -41.6224 -17.3843 -62.1924
rradius 23.1025
rwrist 17.414
rhand -9.21003 -7.8151
rfingers 7.12502
rthumb 16.7443 -37.113
lclavicle 2.28602e-014 1.59028e-015
lhumerus -36.601 1.89091 88.1424
lradius 38.7531
lwrist -18.2032
lhand -6.7156 9.33997
lfingers 7.12502
lthumb 19.1443 38.4177
rfemur -26.8397 17.3337 8.82031
rtibia 29.7871
rfoot -15.9244 12.3641
rtoes -6.51953
lfemur -0.546789 -9.37578 -27.4049
ltibia 10.147
lfoot -13.6653 9.55375
ltoes 8.06532
1323
root -4.69539 15.7102 12.8579 7.58502 6.79268 2.51686
lowerback -6.78747 -2.22664 0.146223
upperback -6.64693 -2.93709 1.18937
thorax -3.01449 -1.4461 1.02589
lowerneck -15.4235 4.36621 8.42133
upperneck 36.0584 7.5402 -9.35847
head 16.1741 3.09272 -4.18611
rclavicle -2.29596e-014 2.38542e-015
rhumerus -41.4212 -17.344 -62.1859
rradius 23.1644
rwrist 17.3361
rhand -9.15807 -7.89187
rfingers 7.12502
rthumb 16.7943 -37.1856
lclavicle -2.29596e-014 2.38542e-015
lhumerus -37.0062 2.68717 87.7583
lradius 37.9071
lwrist -18.7928
lhand -6.65227 9.25288
lfingers 7.12502
lthumb 19.2052 38.3246
rfemur -26.6382 17.2619 9.21719
rtibia 29.7302
rfoot -15.8424 12.3062
rtoes -5.55956
lfemur -0.718168 -9.67629 -27.0521
ltibia 10.624
lfoot -13.9702 9.60996
ltoes 7.90404
1324
root -4.72278 15.7153 12.9139 7.71667 7.14906 2.35462
lowerback -6.9658 -2.2621 0.394636
upperback -6.70939 -2.99259 1.26954
thorax -2.98894 -1.48144 0.961936
lowerneck -15.4182 4.4079 8.39684
upperneck 36.0973 7.65377 -9.43882
head 16.2124 3.12804 -4.19831
rclavicle 7.05686e-015 1.35174e-014
rhumerus -41.1998 -17.2698 -62.2151
rradius 23.2521
rwrist 17.1963
rhand -9.09712 -7.97624
rfingers 7.12502
rthumb 16.8529 -37.2649
lclavicle 7.05686e-015 1.35174e-014
lhumerus -37.3959 3.49981 87.3202
lradius 37.0198
lwrist -19.3418
lhand -6.53936 9.24907
lfingers 7.12502
lthumb 19.3138 38.31
rfemur -26.4388 17.1713 9.59095
rtibia 29.6732
rfoot -15.7593 12.1928
rtoes -4.67258
lfemur -0.883062 -9.93473 -26.7147
ltibia 11.042
lfoot -14.2216 9.58776
ltoes 7.71664
1325
root -4.7513 15.7215 12.9687 7.84829 7.54053 2.22385
lowerback -7.13616 -2.31196 0.589301
upperback -6.76895 -3.06576 1.34316
thorax -2.96263 -1.52367 0.920485
lowerneck -15.4072 4.44977 8.38158
upperneck 36.1229 7.76134 -9.51315
head 16.242 3.16306 -4.2099
rclavicle 1.78906e-015 1.98785e-014
rhumerus -40.972 -17.1518 -62.2743
rradius 23.3663
rwrist 16.9826
rhand -9.05153 -8.02942
rfingers 7.12502
rthumb 16.8968 -37.3144
lclavicle 1.78906e-015 1.98785e-014
lhumerus -37.7775 4.31376 86.8368
lradius 36.1071
lwrist -19.8502
lhand -6.35472 9.35002
lfingers 7.12502
lthumb 19.4913 38.3931
rfemur -26.2329 17.0526 9.94337
rtibia 29.6284
rfoot -15.6848 12.0261
rtoes -3.84647
lfemur -1.01472 -10.1533 -26.3951
ltibia 11.3689
lfoot -14.4002 9.48201
ltoes 7.50262
